<svg xmlns="http://www.w3.org/2000/svg" viewBox="0 0 59.31 17.32"><title>logoLisa</title><g id="Layer_2" data-name="Layer 2"><g id="Layer_1-2" data-name="Layer 1"><path d="M15.09,3.28H16l-4.8,7.6h5.19l-.69.84h-6Z" transform="translate(-9.76 -3.11)"/><path d="M24,3.28l-5.33,8.44h-1l5.33-8.44Z" transform="translate(-9.76 -3.11)"/><path d="M23.48,9.28c-.34,1.07-.06,1.82,1.68,1.82a3.92,3.92,0,0,0,3.45-1.56c.57-.9.44-1.47-1.61-1.85s-2.32-1.16-1.59-2.31A5.49,5.49,0,0,1,30,3.11c2.7,0,2.41,1.42,2,2.23H31c.2-.61.34-1.43-1.55-1.43a3.42,3.42,0,0,0-3,1.37C26,6,26,6.52,27.81,6.85c2.68.5,2.57,1.44,1.85,2.59a5.86,5.86,0,0,1-5.06,2.45c-2.27,0-2.8-1-2.1-2.61Z" transform="translate(-9.76 -3.11)"/><path d="M32.18,14.54l-3.74,5.88H26.85L37.79,3.3h1.67L44,20.42H42.36l-1.54-5.88Zm8.32-1.38c-1.36-5.16-2-7.52-2.17-8.61h0c-.54,1-2.46,4.14-5.28,8.61Z" transform="translate(-9.76 -3.11)"/><path d="M45.85,19.82l-1.46-7.24h.9c1.86,2,5,5.41,5.72,6.25h0c-.25-1-.47-2.09-.7-3.26l-.61-3h.76l1.46,7.24h-.86c-1.45-1.58-5.1-5.62-5.8-6.43h0c.25.94.45,2,.71,3.29l.64,3.14Z" transform="translate(-9.76 -3.11)"/><path d="M54.34,19.82l-1.46-7.24h.9c1.86,2,5,5.41,5.72,6.25h0c-.25-1-.47-2.09-.71-3.26l-.6-3H59l1.45,7.24h-.85c-1.46-1.58-5.1-5.62-5.81-6.43h0c.25.94.45,2,.71,3.29l.64,3.14Z" transform="translate(-9.76 -3.11)"/><path d="M63.34,17.43l-.53,2.39H62l1.58-7.24h.91l4.61,7.24h-.81l-1.51-2.39Zm3-.67c-1.31-2.07-2-3.08-2.21-3.55h0c-.05.49-.3,1.78-.67,3.55Z" transform="translate(-9.76 -3.11)"/></g></g></svg>